<svg width="178" height="82" viewBox="0 0 178 82" fill="none" xmlns="http://www.w3.org/2000/svg">
<path d="M20.832 35.64C20.832 37 20.352 38.176 19.392 39.168C18.432 40.144 17.032 40.848 15.192 41.28C16.184 41.552 16.936 42 17.448 42.624C17.96 43.232 18.216 43.936 18.216 44.736C18.216 46 17.816 47.096 17.016 48.024C16.232 48.952 15.08 49.672 13.56 50.184C12.04 50.68 10.208 50.928 8.064 50.928C7.264 50.928 6.624 50.904 6.144 50.856C6.128 51.304 5.936 51.64 5.568 51.864C5.2 52.088 4.728 52.2 4.152 52.2C3.576 52.2 3.176 52.072 2.952 51.816C2.744 51.56 2.656 51.184 2.688 50.688C2.832 48.448 3.112 46.104 3.528 43.656C3.944 41.192 4.472 38.816 5.112 36.528C5.224 36.128 5.448 35.848 5.784 35.688C6.12 35.528 6.56 35.448 7.104 35.448C8.08 35.448 8.568 35.72 8.568 36.264C8.568 36.488 8.52 36.744 8.424 37.032C8.008 38.28 7.592 39.976 7.176 42.12C6.76 44.248 6.464 46.28 6.288 48.216C7.056 48.28 7.68 48.312 8.16 48.312C10.4 48.312 12.04 47.992 13.08 47.352C14.136 46.696 14.664 45.864 14.664 44.856C14.664 44.152 14.36 43.56 13.752 43.08C13.16 42.6 12.16 42.336 10.752 42.288C10.432 42.272 10.208 42.192 10.08 42.048C9.952 41.904 9.888 41.672 9.888 41.352C9.888 40.888 9.984 40.512 10.176 40.224C10.368 39.936 10.72 39.784 11.232 39.768C12.368 39.736 13.392 39.568 14.304 39.264C15.232 38.96 15.96 38.536 16.488 37.992C17.016 37.432 17.28 36.784 17.28 36.048C17.28 35.12 16.824 34.392 15.912 33.864C15 33.32 13.6 33.048 11.712 33.048C10 33.048 8.344 33.272 6.744 33.72C5.144 34.152 3.784 34.704 2.664 35.376C2.152 35.68 1.72 35.832 1.368 35.832C1.08 35.832 0.856 35.736 0.696 35.544C0.552 35.336 0.48 35.08 0.48 34.776C0.48 34.376 0.56 34.032 0.72 33.744C0.896 33.456 1.304 33.128 1.944 32.76C3.288 31.992 4.864 31.392 6.672 30.96C8.48 30.528 10.328 30.312 12.216 30.312C15.112 30.312 17.272 30.8 18.696 31.776C20.12 32.752 20.832 34.04 20.832 35.64ZM30.8638 45.648C31.0718 45.648 31.2318 45.744 31.3438 45.936C31.4718 46.128 31.5358 46.392 31.5358 46.728C31.5358 47.368 31.3838 47.864 31.0798 48.216C30.4878 48.936 29.6478 49.6 28.5598 50.208C27.4878 50.816 26.3358 51.12 25.1038 51.12C23.4238 51.12 22.1198 50.664 21.1918 49.752C20.2638 48.84 19.7998 47.592 19.7998 46.008C19.7998 44.904 20.0318 43.88 20.4958 42.936C20.9598 41.976 21.5998 41.216 22.4158 40.656C23.2478 40.096 24.1838 39.816 25.2238 39.816C26.1518 39.816 26.8958 40.096 27.4558 40.656C28.0158 41.2 28.2958 41.944 28.2958 42.888C28.2958 43.992 27.8958 44.944 27.0958 45.744C26.3118 46.528 24.9758 47.152 23.0878 47.616C23.4878 48.352 24.2478 48.72 25.3678 48.72C26.0878 48.72 26.9038 48.472 27.8158 47.976C28.7438 47.464 29.5438 46.8 30.2158 45.984C30.4078 45.76 30.6238 45.648 30.8638 45.648ZM24.8158 42.168C24.2238 42.168 23.7198 42.512 23.3038 43.2C22.9038 43.888 22.7038 44.72 22.7038 45.696V45.744C23.6478 45.52 24.3918 45.184 24.9358 44.736C25.4798 44.288 25.7518 43.768 25.7518 43.176C25.7518 42.872 25.6638 42.632 25.4878 42.456C25.3278 42.264 25.1038 42.168 24.8158 42.168ZM32.4165 51.12C31.4245 51.12 30.6325 50.76 30.0405 50.04C29.4485 49.32 29.1525 48.376 29.1525 47.208C29.1525 45.928 29.4485 44.72 30.0405 43.584C30.6325 42.432 31.4165 41.512 32.3925 40.824C33.3845 40.12 34.4325 39.768 35.5365 39.768C35.8885 39.768 36.1205 39.84 36.2325 39.984C36.3605 40.112 36.4645 40.352 36.5445 40.704C36.8805 40.64 37.2325 40.608 37.6005 40.608C38.3845 40.608 38.7765 40.888 38.7765 41.448C38.7765 41.784 38.6565 42.584 38.4165 43.848C38.0485 45.688 37.8645 46.968 37.8645 47.688C37.8645 47.928 37.9205 48.12 38.0325 48.264C38.1605 48.408 38.3205 48.48 38.5125 48.48C38.8165 48.48 39.1845 48.288 39.6165 47.904C40.0485 47.504 40.6325 46.864 41.3685 45.984C41.5605 45.76 41.7765 45.648 42.0165 45.648C42.2245 45.648 42.3845 45.744 42.4965 45.936C42.6245 46.128 42.6885 46.392 42.6885 46.728C42.6885 47.368 42.5365 47.864 42.2325 48.216C41.5765 49.032 40.8805 49.72 40.1445 50.28C39.4085 50.84 38.6965 51.12 38.0085 51.12C37.4805 51.12 36.9925 50.944 36.5445 50.592C36.1125 50.224 35.7845 49.728 35.5605 49.104C34.7285 50.448 33.6805 51.12 32.4165 51.12ZM33.2805 48.696C33.6325 48.696 33.9685 48.488 34.2885 48.072C34.6085 47.656 34.8405 47.104 34.9845 46.416L35.8725 42C35.2005 42.016 34.5765 42.272 34.0005 42.768C33.4405 43.248 32.9925 43.888 32.6565 44.688C32.3205 45.488 32.1525 46.336 32.1525 47.232C32.1525 47.728 32.2485 48.096 32.4405 48.336C32.6485 48.576 32.9285 48.696 33.2805 48.696ZM51.4419 45.648C51.6499 45.648 51.8099 45.744 51.9219 45.936C52.0499 46.128 52.1139 46.392 52.1139 46.728C52.1139 47.368 51.9619 47.864 51.6579 48.216C50.9699 49.064 50.2179 49.76 49.4019 50.304C48.5859 50.848 47.6499 51.12 46.5939 51.12C43.3299 51.12 41.6979 48.824 41.6979 44.232C41.6979 43.528 41.7219 42.816 41.7699 42.096H40.8339C40.3539 42.096 40.0259 42.008 39.8499 41.832C39.6899 41.656 39.6099 41.376 39.6099 40.992C39.6099 40.096 39.9699 39.648 40.6899 39.648H42.0579C42.3299 37.888 42.7459 36.28 43.3059 34.824C43.8659 33.368 44.5379 32.208 45.3219 31.344C46.1219 30.48 46.9779 30.048 47.8899 30.048C48.5619 30.048 49.0899 30.344 49.4739 30.936C49.8579 31.528 50.0499 32.272 50.0499 33.168C50.0499 35.648 49.0099 37.808 46.9299 39.648H49.6179C49.8739 39.648 50.0579 39.704 50.1699 39.816C50.2819 39.928 50.3379 40.136 50.3379 40.44C50.3379 41.544 49.4339 42.096 47.6259 42.096H44.6979C44.6659 42.896 44.6499 43.52 44.6499 43.968C44.6499 45.632 44.8419 46.8 45.2259 47.472C45.6259 48.144 46.2499 48.48 47.0979 48.48C47.7859 48.48 48.3939 48.272 48.9219 47.856C49.4499 47.44 50.0739 46.816 50.7939 45.984C50.9859 45.76 51.2019 45.648 51.4419 45.648ZM47.2419 32.352C47.0019 32.352 46.7299 32.656 46.4259 33.264C46.1379 33.856 45.8579 34.688 45.5859 35.76C45.3299 36.816 45.1139 37.992 44.9379 39.288C45.8819 38.472 46.5859 37.56 47.0499 36.552C47.5299 35.528 47.7699 34.6 47.7699 33.768C47.7699 32.824 47.5939 32.352 47.2419 32.352ZM51.8638 51.12C51.2558 51.12 50.8238 50.8 50.5678 50.16C50.3278 49.52 50.2078 48.496 50.2078 47.088C50.2078 45.008 50.5038 43.032 51.0958 41.16C51.2398 40.696 51.4718 40.36 51.7918 40.152C52.1278 39.928 52.5918 39.816 53.1838 39.816C53.5038 39.816 53.7278 39.856 53.8558 39.936C53.9838 40.016 54.0478 40.168 54.0478 40.392C54.0478 40.648 53.9278 41.224 53.6878 42.12C53.5278 42.76 53.3998 43.32 53.3038 43.8C53.2078 44.28 53.1278 44.872 53.0638 45.576C53.5918 44.2 54.1838 43.08 54.8398 42.216C55.4958 41.352 56.1358 40.736 56.7598 40.368C57.3998 40 57.9838 39.816 58.5118 39.816C59.5518 39.816 60.0718 40.336 60.0718 41.376C60.0718 41.584 59.9998 42.088 59.8558 42.888C59.7278 43.528 59.6638 43.928 59.6638 44.088C59.6638 44.648 59.8638 44.928 60.2638 44.928C60.7118 44.928 61.2878 44.576 61.9918 43.872C62.1998 43.664 62.4158 43.56 62.6398 43.56C62.8478 43.56 63.0078 43.656 63.1198 43.848C63.2478 44.024 63.3118 44.264 63.3118 44.568C63.3118 45.16 63.1518 45.624 62.8318 45.96C62.3838 46.424 61.8558 46.824 61.2478 47.16C60.6558 47.48 60.0238 47.64 59.3518 47.64C58.5038 47.64 57.8558 47.424 57.4078 46.992C56.9758 46.56 56.7598 45.976 56.7598 45.24C56.7598 45 56.7838 44.76 56.8318 44.52C56.8638 44.2 56.8798 43.984 56.8798 43.872C56.8798 43.616 56.7918 43.488 56.6158 43.488C56.3758 43.488 56.0558 43.76 55.6558 44.304C55.2718 44.832 54.8878 45.536 54.5038 46.416C54.1198 47.296 53.8078 48.224 53.5678 49.2C53.3918 49.952 53.1838 50.464 52.9438 50.736C52.7198 50.992 52.3598 51.12 51.8638 51.12ZM64.2257 38.232C63.5537 38.232 63.0497 38.08 62.7137 37.776C62.3777 37.456 62.2097 37.016 62.2097 36.456C62.2097 35.896 62.4257 35.432 62.8577 35.064C63.3057 34.68 63.8577 34.488 64.5137 34.488C65.1057 34.488 65.5857 34.632 65.9537 34.92C66.3217 35.208 66.5057 35.616 66.5057 36.144C66.5057 36.784 66.2977 37.296 65.8817 37.68C65.4657 38.048 64.9137 38.232 64.2257 38.232ZM64.0337 51.12C62.9937 51.12 62.2337 50.752 61.7537 50.016C61.2897 49.28 61.0577 48.304 61.0577 47.088C61.0577 46.368 61.1457 45.448 61.3217 44.328C61.5137 43.192 61.7537 42.136 62.0417 41.16C62.1857 40.648 62.3777 40.296 62.6177 40.104C62.8577 39.912 63.2417 39.816 63.7697 39.816C64.5857 39.816 64.9937 40.088 64.9937 40.632C64.9937 41.032 64.8417 41.96 64.5377 43.416C64.1537 45.176 63.9617 46.368 63.9617 46.992C63.9617 47.472 64.0257 47.84 64.1537 48.096C64.2817 48.352 64.4977 48.48 64.8017 48.48C65.0897 48.48 65.4497 48.28 65.8817 47.88C66.3137 47.48 66.8897 46.848 67.6097 45.984C67.8017 45.76 68.0177 45.648 68.2577 45.648C68.4657 45.648 68.6257 45.744 68.7377 45.936C68.8657 46.128 68.9297 46.392 68.9297 46.728C68.9297 47.368 68.7777 47.864 68.4737 48.216C66.8897 50.152 65.4097 51.12 64.0337 51.12ZM71.5719 51.12C70.0039 51.12 68.7799 50.68 67.8999 49.8C67.0359 48.904 66.6039 47.728 66.6039 46.272C66.6039 44.976 66.8599 43.84 67.3719 42.864C67.8839 41.888 68.5479 41.136 69.3639 40.608C70.1799 40.08 71.0359 39.816 71.9319 39.816C72.8119 39.816 73.4919 40.08 73.9719 40.608C74.4679 41.12 74.7159 41.784 74.7159 42.6C74.7159 43.272 74.5639 43.84 74.2599 44.304C73.9719 44.768 73.5879 45 73.1079 45C72.8039 45 72.5559 44.928 72.3639 44.784C72.1879 44.64 72.0999 44.44 72.0999 44.184C72.0999 44.072 72.1159 43.944 72.1479 43.8C72.1799 43.656 72.2039 43.552 72.2199 43.488C72.2999 43.248 72.3399 43.024 72.3399 42.816C72.3399 42.608 72.2839 42.448 72.1719 42.336C72.0759 42.224 71.9319 42.168 71.7399 42.168C71.3719 42.168 71.0279 42.336 70.7079 42.672C70.3879 42.992 70.1319 43.432 69.9399 43.992C69.7479 44.552 69.6519 45.168 69.6519 45.84C69.6519 47.696 70.4599 48.624 72.0759 48.624C72.7319 48.624 73.4359 48.408 74.1879 47.976C74.9559 47.528 75.7079 46.864 76.4439 45.984C76.6359 45.76 76.8519 45.648 77.0919 45.648C77.2999 45.648 77.4599 45.744 77.5719 45.936C77.6999 46.128 77.7639 46.392 77.7639 46.728C77.7639 47.336 77.6119 47.832 77.3079 48.216C76.5559 49.144 75.6519 49.864 74.5959 50.376C73.5559 50.872 72.5479 51.12 71.5719 51.12ZM84.4159 46.368C84.6239 46.368 84.7839 46.464 84.8959 46.656C85.0239 46.848 85.0879 47.112 85.0879 47.448C85.0879 48.024 84.9519 48.52 84.6799 48.936C84.2319 49.624 83.6399 50.16 82.9039 50.544C82.1839 50.928 81.3199 51.12 80.3119 51.12C78.7759 51.12 77.5839 50.664 76.7359 49.752C75.8879 48.824 75.4639 47.576 75.4639 46.008C75.4639 44.904 75.6959 43.88 76.1599 42.936C76.6239 41.976 77.2639 41.216 78.0799 40.656C78.9119 40.096 79.8479 39.816 80.8879 39.816C81.8159 39.816 82.5599 40.096 83.1199 40.656C83.6799 41.2 83.9599 41.944 83.9599 42.888C83.9599 43.992 83.5599 44.944 82.7599 45.744C81.9759 46.528 80.6319 47.152 78.7279 47.616C79.1119 48.352 79.7599 48.72 80.6719 48.72C81.3279 48.72 81.8639 48.568 82.2799 48.264C82.7119 47.96 83.2079 47.448 83.7679 46.728C83.9599 46.488 84.1759 46.368 84.4159 46.368ZM80.4799 42.168C79.8879 42.168 79.3839 42.512 78.9679 43.2C78.5679 43.888 78.3679 44.72 78.3679 45.696V45.744C79.3119 45.52 80.0559 45.184 80.5999 44.736C81.1439 44.288 81.4159 43.768 81.4159 43.176C81.4159 42.872 81.3279 42.632 81.1519 42.456C80.9919 42.264 80.7679 42.168 80.4799 42.168Z" fill="black"/>
<path d="M122.523 40.632C122.891 40.632 123.155 40.712 123.315 40.872C123.491 41.032 123.579 41.24 123.579 41.496C123.579 41.912 123.451 42.28 123.195 42.6C122.955 42.92 122.571 43.088 122.043 43.104C120.779 43.12 119.643 43.024 118.635 42.816C117.515 45.2 116.163 47.184 114.579 48.768C113.011 50.336 111.459 51.12 109.923 51.12C108.515 51.12 107.459 50.376 106.755 48.888C106.051 47.384 105.651 45.376 105.555 42.864C104.595 45.648 103.507 47.72 102.291 49.08C101.091 50.44 99.8106 51.12 98.4506 51.12C96.9146 51.12 95.7546 50.168 94.9706 48.264C94.1866 46.344 93.7946 43.768 93.7946 40.536C93.7946 38.184 94.0026 35.6 94.4186 32.784C94.5306 31.984 94.7306 31.432 95.0186 31.128C95.3226 30.808 95.7946 30.648 96.4346 30.648C96.9146 30.648 97.2826 30.752 97.5386 30.96C97.8106 31.168 97.9466 31.552 97.9466 32.112C97.9466 32.224 97.9306 32.44 97.8986 32.76C97.4186 36.04 97.1786 38.832 97.1786 41.136C97.1786 43.28 97.3626 44.936 97.7306 46.104C98.0986 47.272 98.5946 47.856 99.2186 47.856C99.7786 47.856 100.451 47.272 101.235 46.104C102.035 44.92 102.827 43.176 103.611 40.872C104.395 38.552 105.059 35.792 105.603 32.592C105.731 31.856 105.963 31.352 106.299 31.08C106.651 30.792 107.123 30.648 107.715 30.648C108.211 30.648 108.571 30.76 108.795 30.984C109.035 31.192 109.155 31.512 109.155 31.944C109.155 32.2 109.139 32.4 109.107 32.544C108.659 35.152 108.435 37.76 108.435 40.368C108.435 42.144 108.491 43.56 108.603 44.616C108.731 45.672 108.963 46.48 109.299 47.04C109.651 47.584 110.155 47.856 110.811 47.856C111.579 47.856 112.435 47.28 113.379 46.128C114.323 44.96 115.187 43.512 115.971 41.784C114.995 41.176 114.259 40.392 113.763 39.432C113.267 38.456 113.019 37.336 113.019 36.072C113.019 34.808 113.211 33.744 113.595 32.88C113.995 32 114.531 31.344 115.203 30.912C115.891 30.48 116.651 30.264 117.483 30.264C118.507 30.264 119.315 30.632 119.907 31.368C120.515 32.104 120.819 33.112 120.819 34.392C120.819 36.2 120.427 38.208 119.643 40.416C120.459 40.56 121.419 40.632 122.523 40.632ZM115.443 35.904C115.443 37.472 115.947 38.632 116.955 39.384C117.579 37.592 117.891 36.112 117.891 34.944C117.891 34.272 117.803 33.784 117.627 33.48C117.451 33.16 117.211 33 116.907 33C116.475 33 116.123 33.256 115.851 33.768C115.579 34.264 115.443 34.976 115.443 35.904ZM123.237 51.12C122.245 51.12 121.453 50.76 120.861 50.04C120.269 49.32 119.973 48.376 119.973 47.208C119.973 45.928 120.269 44.72 120.861 43.584C121.453 42.432 122.237 41.512 123.213 40.824C124.205 40.12 125.253 39.768 126.357 39.768C126.709 39.768 126.941 39.84 127.053 39.984C127.181 40.112 127.285 40.352 127.365 40.704C127.701 40.64 128.053 40.608 128.421 40.608C129.205 40.608 129.597 40.888 129.597 41.448C129.597 41.784 129.477 42.584 129.237 43.848C128.869 45.688 128.685 46.968 128.685 47.688C128.685 47.928 128.741 48.12 128.853 48.264C128.981 48.408 129.141 48.48 129.333 48.48C129.637 48.48 130.005 48.288 130.437 47.904C130.869 47.504 131.453 46.864 132.189 45.984C132.381 45.76 132.597 45.648 132.837 45.648C133.045 45.648 133.205 45.744 133.317 45.936C133.445 46.128 133.509 46.392 133.509 46.728C133.509 47.368 133.357 47.864 133.053 48.216C132.397 49.032 131.701 49.72 130.965 50.28C130.229 50.84 129.517 51.12 128.829 51.12C128.301 51.12 127.813 50.944 127.365 50.592C126.933 50.224 126.605 49.728 126.381 49.104C125.549 50.448 124.501 51.12 123.237 51.12ZM124.101 48.696C124.453 48.696 124.789 48.488 125.109 48.072C125.429 47.656 125.661 47.104 125.805 46.416L126.693 42C126.021 42.016 125.397 42.272 124.821 42.768C124.261 43.248 123.813 43.888 123.477 44.688C123.141 45.488 122.973 46.336 122.973 47.232C122.973 47.728 123.069 48.096 123.261 48.336C123.469 48.576 123.749 48.696 124.101 48.696ZM133.262 51.12C132.654 51.12 132.222 50.8 131.966 50.16C131.726 49.52 131.606 48.496 131.606 47.088C131.606 45.008 131.902 43.032 132.494 41.16C132.638 40.696 132.87 40.36 133.19 40.152C133.526 39.928 133.99 39.816 134.582 39.816C134.902 39.816 135.126 39.856 135.254 39.936C135.382 40.016 135.446 40.168 135.446 40.392C135.446 40.648 135.326 41.224 135.086 42.12C134.926 42.76 134.798 43.32 134.702 43.8C134.606 44.264 134.526 44.848 134.462 45.552C134.894 44.304 135.406 43.248 135.998 42.384C136.606 41.52 137.222 40.88 137.846 40.464C138.486 40.032 139.086 39.816 139.646 39.816C140.206 39.816 140.598 39.944 140.822 40.2C141.062 40.456 141.182 40.848 141.182 41.376C141.182 41.888 141.03 42.816 140.726 44.16C140.598 44.736 140.51 45.168 140.462 45.456C141.262 43.488 142.15 42.056 143.126 41.16C144.102 40.264 145.014 39.816 145.862 39.816C146.902 39.816 147.422 40.336 147.422 41.376C147.422 42 147.246 43.128 146.894 44.76C146.59 46.152 146.438 47.072 146.438 47.52C146.438 48.16 146.67 48.48 147.134 48.48C147.454 48.48 147.83 48.288 148.262 47.904C148.71 47.504 149.302 46.864 150.038 45.984C150.23 45.76 150.446 45.648 150.686 45.648C150.894 45.648 151.054 45.744 151.166 45.936C151.294 46.128 151.358 46.392 151.358 46.728C151.358 47.368 151.206 47.864 150.902 48.216C150.214 49.064 149.47 49.76 148.67 50.304C147.886 50.848 146.99 51.12 145.982 51.12C145.166 51.12 144.55 50.888 144.134 50.424C143.718 49.944 143.51 49.256 143.51 48.36C143.51 47.912 143.622 47.112 143.846 45.96C144.054 44.952 144.158 44.256 144.158 43.872C144.158 43.616 144.07 43.488 143.894 43.488C143.686 43.488 143.39 43.76 143.006 44.304C142.622 44.832 142.238 45.536 141.854 46.416C141.47 47.296 141.158 48.224 140.918 49.2C140.742 49.968 140.534 50.48 140.294 50.736C140.07 50.992 139.702 51.12 139.19 51.12C138.662 51.12 138.262 50.872 137.99 50.376C137.734 49.864 137.606 49.248 137.606 48.528C137.606 47.92 137.686 47.04 137.846 45.888C137.974 44.864 138.038 44.192 138.038 43.872C138.038 43.616 137.95 43.488 137.774 43.488C137.534 43.488 137.23 43.776 136.862 44.352C136.494 44.928 136.134 45.664 135.782 46.56C135.446 47.456 135.174 48.336 134.966 49.2C134.79 49.952 134.582 50.464 134.342 50.736C134.118 50.992 133.758 51.12 133.262 51.12ZM162.186 43.632C162.394 43.632 162.554 43.736 162.666 43.944C162.778 44.152 162.834 44.416 162.834 44.736C162.834 45.136 162.778 45.448 162.666 45.672C162.554 45.88 162.378 46.024 162.138 46.104C161.178 46.44 160.122 46.632 158.97 46.68C158.65 48.008 158.042 49.08 157.146 49.896C156.266 50.712 155.29 51.12 154.218 51.12C152.602 51.12 151.426 50.504 150.69 49.272C149.954 48.04 149.586 46.256 149.586 43.92C149.586 41.856 149.842 39.616 150.354 37.2C150.866 34.768 151.61 32.704 152.586 31.008C153.578 29.296 154.754 28.44 156.114 28.44C156.85 28.44 157.442 28.76 157.89 29.4C158.338 30.024 158.562 30.84 158.562 31.848C158.562 33.16 158.314 34.464 157.818 35.76C157.322 37.056 156.498 38.416 155.346 39.84C156.418 39.92 157.29 40.368 157.962 41.184C158.634 41.984 159.034 42.976 159.162 44.16C159.914 44.112 160.81 43.952 161.85 43.68C161.946 43.648 162.058 43.632 162.186 43.632ZM155.562 30.816C155.242 30.816 154.89 31.296 154.506 32.256C154.138 33.2 153.794 34.488 153.474 36.12C153.154 37.752 152.914 39.536 152.754 41.472C153.81 39.536 154.65 37.832 155.274 36.36C155.914 34.872 156.234 33.552 156.234 32.4C156.234 31.888 156.17 31.496 156.042 31.224C155.93 30.952 155.77 30.816 155.562 30.816ZM154.314 48.576C154.81 48.576 155.25 48.368 155.634 47.952C156.018 47.536 156.274 46.936 156.402 46.152C155.906 45.816 155.522 45.376 155.25 44.832C154.994 44.288 154.866 43.712 154.866 43.104C154.866 42.88 154.898 42.576 154.962 42.192H154.89C154.234 42.192 153.682 42.52 153.234 43.176C152.802 43.816 152.586 44.68 152.586 45.768C152.586 46.68 152.754 47.376 153.09 47.856C153.442 48.336 153.85 48.576 154.314 48.576ZM163.209 51.12C162.489 51.12 161.897 50.792 161.433 50.136C160.985 49.464 160.761 48.632 160.761 47.64C160.761 46.44 160.841 45.344 161.001 44.352C161.161 43.344 161.425 42.28 161.793 41.16C161.953 40.68 162.177 40.336 162.465 40.128C162.753 39.92 163.209 39.816 163.833 39.816C164.185 39.816 164.425 39.872 164.553 39.984C164.697 40.096 164.769 40.264 164.769 40.488C164.769 40.616 164.681 41.048 164.505 41.784C164.345 42.376 164.217 42.912 164.121 43.392C163.801 45.072 163.641 46.192 163.641 46.752C163.641 47.088 163.681 47.328 163.761 47.472C163.841 47.6 163.969 47.664 164.145 47.664C164.385 47.664 164.681 47.424 165.033 46.944C165.401 46.464 165.785 45.736 166.185 44.76C166.601 43.784 167.001 42.584 167.385 41.16C167.513 40.68 167.705 40.336 167.961 40.128C168.233 39.92 168.633 39.816 169.161 39.816C169.529 39.816 169.785 39.864 169.929 39.96C170.073 40.04 170.145 40.2 170.145 40.44C170.145 40.84 169.945 41.936 169.545 43.728C169.097 45.776 168.873 47.04 168.873 47.52C168.873 47.824 168.937 48.064 169.065 48.24C169.193 48.4 169.361 48.48 169.569 48.48C169.889 48.48 170.265 48.288 170.697 47.904C171.145 47.504 171.737 46.864 172.473 45.984C172.665 45.76 172.881 45.648 173.121 45.648C173.329 45.648 173.489 45.744 173.601 45.936C173.729 46.128 173.793 46.392 173.793 46.728C173.793 47.368 173.641 47.864 173.337 48.216C172.649 49.064 171.905 49.76 171.105 50.304C170.321 50.848 169.425 51.12 168.417 51.12C167.649 51.12 167.081 50.824 166.713 50.232C166.361 49.64 166.185 48.808 166.185 47.736C165.913 48.824 165.505 49.664 164.961 50.256C164.417 50.832 163.833 51.12 163.209 51.12ZM175.159 38.232C174.487 38.232 173.983 38.08 173.647 37.776C173.311 37.456 173.143 37.016 173.143 36.456C173.143 35.896 173.359 35.432 173.791 35.064C174.239 34.68 174.791 34.488 175.447 34.488C176.039 34.488 176.519 34.632 176.887 34.92C177.255 35.208 177.439 35.616 177.439 36.144C177.439 36.784 177.231 37.296 176.815 37.68C176.399 38.048 175.847 38.232 175.159 38.232ZM172.855 51.12C172.343 51.12 171.991 51.016 171.799 50.808C171.607 50.6 171.511 50.272 171.511 49.824C171.511 49.696 171.527 49.472 171.559 49.152C171.815 46.224 172.239 43.56 172.831 41.16C172.959 40.664 173.167 40.32 173.455 40.128C173.759 39.92 174.239 39.816 174.895 39.816C175.583 39.816 175.927 40.096 175.927 40.656C175.927 40.736 175.911 40.888 175.879 41.112C175.159 44.536 174.727 47.408 174.583 49.728C174.551 50.24 174.399 50.6 174.127 50.808C173.855 51.016 173.431 51.12 172.855 51.12Z" fill="url(#paint0_linear_8_912)"/>
<defs>
<linearGradient id="paint0_linear_8_912" x1="88.5" y1="20" x2="88.5" y2="62" gradientUnits="userSpaceOnUse">
<stop stop-color="#FF9C1A"/>
<stop offset="1" stop-color="#ED250A"/>
</linearGradient>
</defs>
</svg>
